# vtk DataFile Version 3.0
Arvore arterial
ASCII
DATASET POLYDATA
POINTS 38 float
-0.401781 0.0214724 0
2.90496 3.92165 0
2.90496 3.92165 0
6.2117 7.82184 0
-0.401781 0.0214724 0
-0.602672 -4.96779 0
0 10 0
-0.200891 5.01074 0
-0.200891 5.01074 0
-0.401781 0.0214724 0
-0.602672 -4.96779 0
-5.29139 -2.67663 0
-5.29139 -2.67663 0
-9.98011 -0.385473 0
-5.29139 -2.67663 0
-7.06649 -6.96946 0
-0.602672 -4.96779 0
-0.703117 -7.46242 0
-0.703117 -7.46242 0
-0.803562 -9.95706 0
2.90496 3.92165 0
6.09925 0.129787 0
6.09925 0.129787 0
9.29354 -3.66208 0
6.09925 0.129787 0
9.67065 2.51771 0
-0.200891 5.01074 0
-3.03009 6.55579 0
-3.03009 6.55579 0
-5.8593 8.10085 0
-3.03009 6.55579 0
-5.1707 2.7369 0
-0.703117 -7.46242 0
2.16702 -7.79981 0
2.16702 -7.79981 0
5.03716 -8.13719 0
2.16702 -7.79981 0
3.74814 -3.87854 0
LINES 19 57
2 0 1
2 2 3
2 4 5
2 6 7
2 8 9
2 10 11
2 12 13
2 14 15
2 16 17
2 18 19
2 20 21
2 22 23
2 24 25
2 26 27
2 28 29
2 30 31
2 32 33
2 34 35
2 36 37
