# vtk DataFile Version 3.0
Arvore arterial
ASCII
DATASET POLYDATA
POINTS 322 float
1.28755 -9.63562 0
-0.193312 -9.96073 0
0.311926 8.78772 0
0.935779 6.36317 0
4.49811 6.91287 0
5.80799 8.13975 0
-8.21066 0.137036 0
-9.82898 -1.02031 0
2.62351 2.42976 0
3.58624 0.453432 0
7.8864 -2.61034 0
9.45169 -3.2041 0
0.103975 9.59591 0
0.311926 8.78772 0
-5.41986 6.23646 0
-7.15031 6.73174 0
-4.09862 -0.159277 0
-5.18343 -0.656819 0
-4.97249 -5.26661 0
-6.65709 -7.31332 0
6.70574 2.38214 0
9.28377 3.15604 0
3.13676 -4.32573 0
3.93742 -5.54183 0
3.93742 -5.54183 0
5.54845 -8.0657 0
-5.18343 -0.656819 0
-1.51431 -4.63925 0
-4.44552 6.99203 0
-5.41986 6.23646 0
-8.38145 3.23913 0
-9.42119 3.18993 0
-1.25808 2.76846 0
-1.66105 1.82034 0
-0.732866 0.751836 0
-0.735514 -0.245324 0
1.47077 5.3371 0
2.48277 4.04359 0
4.55338 4.4222 0
4.9168 4.26514 0
-4.8468 -3.02149 0
-4.97249 -5.26661 0
-4.35131 -7.22643 0
-3.07694 -7.82969 0
-7.02569 -5.54063 0
-8.80446 -4.47841 0
0.311926 8.78772 0
-2.49232 8.65852 0
-2.49232 8.65852 0
-3.38596 9.37974 0
-3.66177 2.00074 0
-5.15556 2.83608 0
4.83001 0.212591 0
6.42479 -0.419943 0
7.31041 -0.150933 0
7.3082 -0.0741413 0
3.58624 0.453432 0
2.98482 -1.68956 0
1.84557 -2.75368 0
1.60641 -2.97791 0
6.53724 -5.66419 0
7.97956 -6.02541 0
0.935779 6.36317 0
-0.452118 4.6647 0
-1.93465 4.96282 0
-2.19794 5.25797 0
2.48277 4.04359 0
4.55338 4.4222 0
6.59606 4.70928 0
7.60434 5.65059 0
6.42479 -0.419943 0
6.17453 -3.43924 0
3.75308 -6.83822 0
2.70958 -8.28903 0
2.70958 -8.28903 0
2.85864 -9.56326 0
2.98482 -1.68956 0
3.13676 -4.32573 0
1.17754 -5.96807 0
1.03868 -5.94979 0
6.42479 -0.419943 0
7.31041 -0.150933 0
8.05344 0.491034 0
9.97167 0.502516 0
3.09626 9.14876 0
3.08853 9.43734 0
-5.18343 -0.656819 0
-6.73985 -0.148385 0
-6.73985 -0.148385 0
-7.52993 1.05023 0
2.48277 4.04359 0
2.62351 2.42976 0
2.62351 2.42976 0
1.12031 1.54092 0
-7.20564 -2.34283 0
-6.93396 -2.71727 0
2.24667 -4.887 0
1.17754 -5.96807 0
-0.29706 -7.41865 0
-0.642838 -7.62868 0
-1.66105 1.82034 0
-3.01382 0.338264 0
-3.01382 0.338264 0
-2.73289 -2.1178 0
-1.79963 -1.75609 0
-0.598006 -2.44739 0
-6.73985 -0.148385 0
-8.21066 0.137036 0
-8.21066 0.137036 0
-9.6077 1.14384 0
0.935779 6.36317 0
3.44586 6.97041 0
3.44586 6.97041 0
3.48284 6.82988 0
1.17754 -5.96807 0
-0.29706 -7.41865 0
-1.15284 -7.79492 0
-2.20892 -9.68975 0
-4.97249 -5.26661 0
-4.35131 -7.22643 0
-4.45334 -8.02024 0
-5.00452 -8.58298 0
-2.49232 8.65852 0
-3.95069 7.8102 0
-3.95069 7.8102 0
-5.38749 8.41272 0
-0.452118 4.6647 0
-1.93465 4.96282 0
-1.93465 4.96282 0
-4.10988 4.67362 0
3.58624 0.453432 0
6.70574 2.38214 0
6.70574 2.38214 0
6.84111 2.67084 0
2.62351 2.42976 0
1.35423 -0.476248 0
-2.49232 8.65852 0
-1.01831 7.03449 0
-6.78454 5.24973 0
-7.22168 4.43858 0
-7.22168 4.43858 0
-7.12226 4.30128 0
-8.21066 0.137036 0
-8.83061 -2.61263 0
-4.35131 -7.22643 0
-2.95248 -5.85456 0
2.98482 -1.68956 0
1.84557 -2.75368 0
1.84557 -2.75368 0
0.284527 -4.20922 0
3.44586 6.97041 0
4.49811 6.91287 0
4.49811 6.91287 0
5.42157 6.21313 0
2.98482 -1.68956 0
5.01314 -1.85621 0
6.42479 -0.419943 0
7.8864 -2.61034 0
7.8864 -2.61034 0
7.78272 -4.20699 0
7.31041 -0.150933 0
9.89086 -1.47224 0
2.48277 4.04359 0
4.64558 2.26025 0
-0.452118 4.6647 0
0.848103 3.26092 0
-5.18343 -0.656819 0
-4.8468 -3.02149 0
-4.8468 -3.02149 0
-4.73123 -3.05137 0
-3.01382 0.338264 0
-4.09862 -0.159277 0
-4.09862 -0.159277 0
-5.34133 1.11029 0
7.31041 -0.150933 0
8.05344 0.491034 0
8.05344 0.491034 0
8.20886 1.44824 0
-7.22168 4.43858 0
-6.95164 2.59022 0
-1.93465 4.96282 0
-2.88026 3.28419 0
0 10 0
0.103975 9.59591 0
0.103975 9.59591 0
-1.14328 9.9277 0
-4.97249 -5.26661 0
-7.02569 -5.54063 0
-7.02569 -5.54063 0
-7.80157 -6.07739 0
3.44586 6.97041 0
1.90053 7.99318 0
3.13676 -4.32573 0
4.53772 -3.52178 0
-4.8468 -3.02149 0
-3.59098 -4.25081 0
-3.95069 7.8102 0
-2.79455 6.71201 0
4.84518 -5.54391 0
5.90973 -5.98698 0
5.90973 -5.98698 0
5.88535 -6.08865 0
4.55338 4.4222 0
6.59606 4.70928 0
7.49804 4.35467 0
7.63045 4.05506 0
1.17754 -5.96807 0
-1.38055 -6.19308 0
2.70958 -8.28903 0
4.28186 -8.90907 0
4.49811 6.91287 0
6.76976 6.92761 0
-0.29706 -7.41865 0
1.21098 -7.7676 0
1.4134 9.38845 0
3.09626 9.14876 0
3.09626 9.14876 0
4.50002 8.8964 0
-7.02569 -5.54063 0
-6.2498 -4.145 0
-5.41986 6.23646 0
-6.78454 5.24973 0
-6.78454 5.24973 0
-8.20247 5.7097 0
-5.41986 6.23646 0
-5.49699 4.26345 0
-7.89096 4.04932 0
-8.38145 3.23913 0
-8.38145 3.23913 0
-8.50147 2.08888 0
-4.35131 -7.22643 0
-4.45334 -8.02024 0
-4.45334 -8.02024 0
-3.65709 -9.27618 0
3.93742 -5.54183 0
3.75308 -6.83822 0
3.75308 -6.83822 0
3.97802 -7.21888 0
1.84557 -2.75368 0
0.709963 -1.7578 0
-1.66105 1.82034 0
-3.66177 2.00074 0
-3.66177 2.00074 0
-3.78851 1.837 0
4.55338 4.4222 0
2.9808 5.43316 0
5.90973 -5.98698 0
6.80853 -7.25834 0
-0.452118 4.6647 0
-1.25808 2.76846 0
-1.25808 2.76846 0
-0.191324 2.23777 0
3.58624 0.453432 0
4.83001 0.212591 0
4.83001 0.212591 0
5.37175 0.755139 0
0.311926 8.78772 0
1.4134 9.38845 0
1.4134 9.38845 0
1.58675 9.86883 0
-6.73985 -0.148385 0
-7.27126 -1.17797 0
-7.27126 -1.17797 0
-7.73796 -1.35125 0
6.59606 4.70928 0
7.49804 4.35467 0
7.49804 4.35467 0
8.90481 4.54429 0
8.05344 0.491034 0
9.52506 1.83308 0
3.93742 -5.54183 0
4.84518 -5.54391 0
4.84518 -5.54391 0
5.43937 -4.664 0
3.75308 -6.83822 0
2.38332 -6.81111 0
0.935779 6.36317 0
1.47077 5.3371 0
1.47077 5.3371 0
1.05176 4.8459 0
-3.95069 7.8102 0
-4.44552 6.99203 0
-4.44552 6.99203 0
-3.98132 6.04863 0
-7.27126 -1.17797 0
-7.20564 -2.34283 0
-7.20564 -2.34283 0
-7.88946 -3.5492 0
-7.22168 4.43858 0
-7.89096 4.04932 0
-7.89096 4.04932 0
-8.91782 4.50192 0
2.70958 -8.28903 0
1.28755 -9.63562 0
1.28755 -9.63562 0
1.30226 -9.89098 0
6.59606 4.70928 0
5.61496 3.16106 0
3.13676 -4.32573 0
2.24667 -4.887 0
2.24667 -4.887 0
1.71468 -4.40865 0
1.28755 -9.63562 0
0.227176 -8.68416 0
-1.66105 1.82034 0
-0.732866 0.751836 0
-0.732866 0.751836 0
0.197971 0.680489 0
-7.27126 -1.17797 0
-6.00672 -1.69929 0
-0.29706 -7.41865 0
-1.15284 -7.79492 0
-1.15284 -7.79492 0
-1.90848 -7.41192 0
-3.01382 0.338264 0
-1.79963 -1.75609 0
-1.79963 -1.75609 0
-1.78706 -3.15914 0
5.90973 -5.98698 0
6.53724 -5.66419 0
6.53724 -5.66419 0
6.75733 -4.99939 0
LINES 161 483
2 0 1
2 2 3
2 4 5
2 6 7
2 8 9
2 10 11
2 12 13
2 14 15
2 16 17
2 18 19
2 20 21
2 22 23
2 24 25
2 26 27
2 28 29
2 30 31
2 32 33
2 34 35
2 36 37
2 38 39
2 40 41
2 42 43
2 44 45
2 46 47
2 48 49
2 50 51
2 52 53
2 54 55
2 56 57
2 58 59
2 60 61
2 62 63
2 64 65
2 66 67
2 68 69
2 70 71
2 72 73
2 74 75
2 76 77
2 78 79
2 80 81
2 82 83
2 84 85
2 86 87
2 88 89
2 90 91
2 92 93
2 94 95
2 96 97
2 98 99
2 100 101
2 102 103
2 104 105
2 106 107
2 108 109
2 110 111
2 112 113
2 114 115
2 116 117
2 118 119
2 120 121
2 122 123
2 124 125
2 126 127
2 128 129
2 130 131
2 132 133
2 134 135
2 136 137
2 138 139
2 140 141
2 142 143
2 144 145
2 146 147
2 148 149
2 150 151
2 152 153
2 154 155
2 156 157
2 158 159
2 160 161
2 162 163
2 164 165
2 166 167
2 168 169
2 170 171
2 172 173
2 174 175
2 176 177
2 178 179
2 180 181
2 182 183
2 184 185
2 186 187
2 188 189
2 190 191
2 192 193
2 194 195
2 196 197
2 198 199
2 200 201
2 202 203
2 204 205
2 206 207
2 208 209
2 210 211
2 212 213
2 214 215
2 216 217
2 218 219
2 220 221
2 222 223
2 224 225
2 226 227
2 228 229
2 230 231
2 232 233
2 234 235
2 236 237
2 238 239
2 240 241
2 242 243
2 244 245
2 246 247
2 248 249
2 250 251
2 252 253
2 254 255
2 256 257
2 258 259
2 260 261
2 262 263
2 264 265
2 266 267
2 268 269
2 270 271
2 272 273
2 274 275
2 276 277
2 278 279
2 280 281
2 282 283
2 284 285
2 286 287
2 288 289
2 290 291
2 292 293
2 294 295
2 296 297
2 298 299
2 300 301
2 302 303
2 304 305
2 306 307
2 308 309
2 310 311
2 312 313
2 314 315
2 316 317
2 318 319
2 320 321
CELL_DATA 161
SCALARS raio float 1
LOOKUP_TABLE default
0.000892525
0.00389326
0.000892525
0.000892525
0.00294705
0.000892525
0.00412888
0.000892525
0.00238161
0.000892525
0.000892525
0.00209862
0.000892525
0.000892525
0.00178505
0.000892525
0.00267757
0.000892525
0.00317462
0.000892525
0.00178505
0.000892525
0.000892525
0.00209862
0.000892525
0.000892525
0.00178505
0.000892525
0.00260976
0.000892525
0.000892525
0.00283359
0.000892525
0.00162183
0.000892525
0.000892525
0.0015262
0.000892525
0.00246241
0.000892525
0.0015262
0.000892525
0.000892525
0.00178505
0.000892525
0.00300065
0.000892525
0.000892525
0.00162183
0.000892525
0.00253822
0.000892525
0.000892525
0.00128724
0.000892525
0.0015262
0.000892525
0.0014168
0.000892525
0.0014168
0.000892525
0.00198496
0.000892525
0.00128724
0.000892525
0.00112451
0.000892525
0.000892525
0.000892525
0.0015262
0.000892525
0.000892525
0.000892525
0.00128724
0.000892525
0.00128724
0.000892525
0.000892525
0.00112451
0.000892525
0.000892525
0.000892525
0.000892525
0.00192289
0.000892525
0.00242269
0.000892525
0.00128724
0.000892525
0.000892525
0.000892525
0.00414273
0.000892525
0.00128724
0.000892525
0.000892525
0.000892525
0.000892525
0.000892525
0.0014168
0.000892525
0.0014168
0.000892525
0.000892525
0.000892525
0.000892525
0.000892525
0.00112451
0.000892525
0.000892525
0.00162183
0.000892525
0.000892525
0.00112451
0.000892525
0.00112451
0.000892525
0.00170734
0.000892525
0.000892525
0.00112451
0.000892525
0.000892525
0.000892525
0.00271023
0.000892525
0.00185653
0.000892525
0.00128724
0.000892525
0.0014168
0.000892525
0.00112451
0.000892525
0.000892525
0.0015262
0.000892525
0.000892525
0.00319796
0.000892525
0.00185653
0.000892525
0.00112451
0.000892525
0.00128724
0.000892525
0.00128724
0.000892525
0.000892525
0.00170734
0.000892525
0.000892525
0.00112451
0.000892525
0.000892525
0.00112451
0.000892525
0.00112451
0.000892525
0.00112451
0.000892525
SCALARS fluxo float 1
LOOKUP_TABLE default
8.33e-08
6.9139e-06
8.33e-08
8.33e-08
2.9988e-06
8.33e-08
8.2467e-06
8.33e-08
1.5827e-06
8.33e-08
8.33e-08
1.0829e-06
8.33e-08
8.33e-08
6.664e-07
8.33e-08
2.2491e-06
8.33e-08
3.7485e-06
8.33e-08
6.664e-07
8.33e-08
8.33e-08
1.0829e-06
8.33e-08
8.33e-08
6.664e-07
8.33e-08
2.0825e-06
8.33e-08
8.33e-08
2.6656e-06
8.33e-08
4.998e-07
8.33e-08
8.33e-08
4.165e-07
8.33e-08
1.7493e-06
8.33e-08
4.165e-07
8.33e-08
8.33e-08
6.664e-07
8.33e-08
3.1654e-06
8.33e-08
8.33e-08
4.998e-07
8.33e-08
1.9159e-06
8.33e-08
8.33e-08
2.499e-07
8.33e-08
4.165e-07
8.33e-08
3.332e-07
8.33e-08
3.332e-07
8.33e-08
9.163e-07
8.33e-08
2.499e-07
8.33e-08
1.666e-07
8.33e-08
8.33e-08
8.33e-08
4.165e-07
8.33e-08
8.33e-08
8.33e-08
2.499e-07
8.33e-08
2.499e-07
8.33e-08
8.33e-08
1.666e-07
8.33e-08
8.33e-08
8.33e-08
8.33e-08
8.33e-07
8.33e-08
1.666e-06
8.33e-08
2.499e-07
8.33e-08
8.33e-08
8.33e-08
8.33e-06
8.33e-08
2.499e-07
8.33e-08
8.33e-08
8.33e-08
8.33e-08
8.33e-08
3.332e-07
8.33e-08
3.332e-07
8.33e-08
8.33e-08
8.33e-08
8.33e-08
8.33e-08
1.666e-07
8.33e-08
8.33e-08
4.998e-07
8.33e-08
8.33e-08
1.666e-07
8.33e-08
1.666e-07
8.33e-08
5.831e-07
8.33e-08
8.33e-08
1.666e-07
8.33e-08
8.33e-08
8.33e-08
2.3324e-06
8.33e-08
7.497e-07
8.33e-08
2.499e-07
8.33e-08
3.332e-07
8.33e-08
1.666e-07
8.33e-08
8.33e-08
4.165e-07
8.33e-08
8.33e-08
3.8318e-06
8.33e-08
7.497e-07
8.33e-08
1.666e-07
8.33e-08
2.499e-07
8.33e-08
2.499e-07
8.33e-08
8.33e-08
5.831e-07
8.33e-08
8.33e-08
1.666e-07
8.33e-08
8.33e-08
1.666e-07
8.33e-08
1.666e-07
8.33e-08
1.666e-07
8.33e-08
SCALARS profundidade float 1
LOOKUP_TABLE default
14
3
6
12
7
11
2
7
9
12
9
10
11
10
6
11
6
8
5
7
11
13
13
3
4
8
9
11
8
10
14
4
6
6
8
10
12
13
9
12
10
12
5
10
11
6
7
13
11
13
7
8
9
11
12
4
5
12
14
12
14
4
5
5
6
8
9
7
4
8
9
12
13
9
10
5
6
9
10
11
11
6
5
10
11
8
9
11
12
9
6
1
2
12
13
5
10
11
5
12
13
7
9
12
13
6
13
4
5
13
7
8
7
10
11
13
14
11
12
10
7
8
7
13
5
6
8
9
3
4
11
12
8
9
12
11
12
12
4
5
5
6
12
13
9
10
13
14
8
10
11
14
7
8
12
13
14
8
9
13
14
